<svg width="320" height="320" viewBox="0 0 320 320" style="stroke: black; fill: none;" xmlns="http://www.w3.org/2000/svg">
<path d="M99.9982 210.06V30.0596L119.998 40.0596L139.998 30.0596L159.961 40.0596L180.192 30.0596L199.998 40.0596L219.867 30.0596L239.823 40.0596L259.998 30.0596L280.004 40.0596L299.998 30.0596V170.06" stroke-width="18" stroke-linejoin="round"/>
<path d="M299.999 170.024V240.024C299.999 253.284 294.731 266.002 285.355 275.379C275.978 284.756 263.26 290.024 249.999 290.024V290.024C236.738 290.024 224.021 284.756 214.644 275.379C205.267 266.002 199.999 253.284 199.999 240.024V210.024H29.9993C28.6828 210.012 27.3772 210.263 26.1587 210.761C24.9402 211.259 23.8331 211.996 22.9022 212.926C21.9713 213.857 21.2351 214.964 20.7367 216.183C20.2383 217.402 19.9876 218.707 19.9993 220.024C19.9993 260.024 24.2118 290.024 69.9993 290.024H249.999" stroke-width="18" stroke-linejoin="round"/>
<path d="M179.998 140.036H259.998M139.998 90.0356H259.998H139.998Z" stroke-width="18" stroke-linecap="round" stroke-linejoin="round"/>
</svg>
