<svg width="320" height="320" viewBox="0 0 320 320" fill="none" xmlns="http://www.w3.org/2000/svg">
<path d="M133.333 66.6666V73.3333H161.2C184.8 73.3333 189.467 73.6 191.2 75.4666C193.067 77.2 193.333 83.8666 193.333 127.467V177.333H112H30.6667V155.333V133.333H24H17.3334V178.667V223.867L21.4667 228.533C26.6667 234.533 32 236 49.6 236H63.7334L65.2 240.267C70.4 255.067 87.7334 263.2 104.4 258.533C111.067 256.667 119.733 248.8 122.933 241.6L125.467 236H169.2H213.067L213.867 239.067C215.333 245.333 222.667 253.467 229.733 256.8C246.533 264.533 265.867 257.333 272.8 240.4C274.533 236.533 275.333 236 279.733 236C285.867 236 294.267 232.133 298.667 227.467C301.733 224 302 222.8 303.067 199.6C303.733 186.267 303.867 169.733 303.333 162.8C302.4 150.267 302.267 150 290.533 126.8C284 113.867 276.8 101.733 274.667 99.7333C269.733 95.2 268 94.9333 234.4 93.8666L206.667 93.0666V83.4666C206.667 72.5333 204.133 66.9333 197.067 62.6666C193.067 60.2666 190.267 60 163.067 60H133.333V66.6666ZM267.067 112.267C268.8 114.667 274.533 124.933 279.733 135.067L289.333 153.467V185.867C289.333 210.933 288.933 218.667 287.6 219.733C286.667 220.533 283.467 221.6 280.533 222.133L275.067 222.933L271.467 215.467C267.2 206.8 261.467 202 252.4 199.2C237.333 194.533 220.4 202.933 214 218.133C212.667 221.467 211.333 222.8 209.733 222.4C207.467 222 207.333 218.267 206.933 164.933L206.667 108H235.2H263.867L267.067 112.267ZM193.333 206.667V222.667H159.467H125.6L122 215.2C112.267 195.2 85.6 191.867 70.9334 208.667C68.5334 211.333 65.7334 215.6 64.6667 218.133L62.6667 222.933L48.4 222.4C40.4 222.133 33.2 221.467 32.4 220.933C31.2 220.133 30.6667 215.467 30.6667 205.2V190.667H112H193.333V206.667ZM102 213.333C119.867 222 112.133 248.533 92.4 246.267C82.5334 245.2 74.4 234.533 76.6667 225.733C78.6667 217.733 86.5334 210.933 93.8667 210.667C95.3334 210.667 98.9334 211.867 102 213.333ZM249.733 212.533C260.4 216.933 264.4 228.667 258.533 238.267C250.533 251.067 231.467 248.4 226.533 233.733C223.867 225.6 228.267 216.133 236.533 212.533C241.867 210.267 244.4 210.267 249.733 212.533Z" fill="black"/>
<path d="M219.2 113.2C212.933 115.867 212 119.333 212 139.067C212 157.2 212 157.467 215.467 160.667L219.067 164H250.133C276.533 164 281.467 163.733 283.2 161.867C284.4 160.8 285.333 158.933 285.333 157.867C285.333 155.6 267.6 120.8 264 116C261.6 112.8 261.067 112.667 241.733 112.4C230.933 112.133 220.667 112.533 219.2 113.2ZM260.667 137.333C264 143.867 266.667 149.6 266.667 150C266.667 150.4 257.333 150.667 246 150.667H225.333V138V125.333H240H254.667L260.667 137.333Z" fill="black"/>
<line x1="23.35" y1="147" x2="23.35" y2="60" stroke="black" stroke-width="13.3"/>
<line x1="150" y1="66.6" x2="30" y2="66.6" stroke="black" stroke-width="13.2"/>
</svg>
