<svg width="320" height="320" viewBox="0 0 320 320" fill="none" xmlns="http://www.w3.org/2000/svg">
<path d="M57 19C50.8 20.3 47.5 21.7 40.3 26.3C32.5 31.1 27.3 36.9 22.9 45.7C19.5 52.5 19.5 52.6 19.5 66.5C19.5 80.4 19.5 80.6 22.9 87.4C27.4 96.7 36.4 105.5 46 110.3C53.3 114 53.3 114 66.4 114C79.4 114 79.6 114 86.9 110.5C96 106.1 106.2 96.2 110.5 87.5C113.3 81.9 113.5 80.7 113.8 67.6L114.2 53.7L110.6 46.5C104.2 33.6 94.3 24.8 82.1 20.9C74.8 18.7 63 17.8 57 19ZM75.4 40.6C75.7 43.2 76 47.9 76 51V56.7L81.3 57.4C84.1 57.7 88.9 58 91.8 58H97V66.4V74.7L93.3 75.4C91.2 75.7 86.5 76 82.8 76H76V82.7C76 86.5 75.7 91.2 75.4 93.2L74.7 97H66.4H58V91.7C58 88.9 57.7 84.1 57.4 81.2L56.7 76H51C47.9 76 43.2 75.7 40.6 75.4L36 74.7V66.5V58.3L46.1 57.7C51.7 57.3 56.4 56.9 56.7 56.7C56.9 56.4 57.3 51.7 57.7 46.1L58.3 36H66.5H74.7L75.4 40.6Z" fill="black"/>
<path d="M145.1 26C138.8 28.7 133.5 31.1 133.3 31.3C133.1 31.6 133.1 36.3 133.2 41.9L133.5 52L144.9 47C151.2 44.2 157.7 42 159.3 42C160.9 42 172.4 46 184.9 50.9C217.6 63.8 232 68.2 263.8 75C271.6 76.6 278.3 78 278.5 78C279.7 78 278.9 112 277.5 122.7C273.2 155.8 260.4 186.5 239.3 214.8C232 224.6 215 242.2 203.9 251.5C188.5 264.4 166.2 278 160.3 278C154.6 278 133.6 265.6 117.4 252.4C102.9 240.7 84.3 220.8 75.7 207.8C62.8 188.5 51.6 163.9 46.2 143.5L43.5 133H34.3C23.1 133 23.5 131.8 28.6 151C37.8 186 53.3 214.5 77.8 241.2C99.7 265.1 133.4 290.2 153.6 297.6L160.9 300.2L172.2 294.7C192.2 284.8 213.9 269.6 230.1 254.2C267.7 218.5 290.9 171.9 297.6 118.5C299.6 102.6 299.9 74.3 298.1 68.2C296.6 62.9 295.2 62.2 278 58.5C253.4 53.2 232.8 48 219.8 43.6C207.2 39.4 199.5 36.4 173.5 25.6C167.5 23.1 161.2 21 159.5 21C157.9 21 151.4 23.3 145.1 26Z" fill="black"/>
<path d="M199.4 108.4C194.9 113.1 179.9 130 166.1 146C152.2 161.9 140.6 175 140.3 175C140 175 135 170.6 129.1 165.2C123.3 159.8 117.2 154.4 115.6 153.2C112.4 150.8 107.3 150.3 104.7 152.2C102.1 154.2 100.1 160.1 101.1 162.8C102.5 166.4 133 196.4 137.4 198.4C141.1 200.2 141.3 200.2 143.9 198.3C149 194.5 194.5 143.5 212.7 121.1C219.6 112.6 220.4 110 217.9 105.3C216.5 102.6 212.2 100 209.3 100C208.3 100 203.8 103.8 199.4 108.4Z" fill="black"/>
</svg>
