<svg width="320" height="320" viewBox="0 0 320 320" fill="none" xmlns="http://www.w3.org/2000/svg">
<g clip-path="url(#clip0_16_54)">
<path d="M225.733 0.933317L318.667 1.33332V160V318.667H160H1.33333L0.933333 225.6L0.666667 132.667L0.266667 226.267L0 320H160H320V160V-1.66893e-05L226.4 0.26665L132.667 0.66665L225.733 0.933317Z" fill="black"/>
<path d="M49.6 15.7333C40.8 18.9333 29.8667 26.4 24.9333 32.6667C22.8 35.3333 19.6 40.8 17.6 45.0667C14.4 51.7333 14 54.2667 14 66.6667C14 79.7333 14.2667 81.3333 18.2667 89.4667C23.8667 100.8 33.0667 110 44 115.2C52 119.067 53.7333 119.333 66.6667 119.333C79.7333 119.333 81.3333 119.067 89.4667 115.067C100.8 109.467 110 100.267 115.2 89.3333C119.067 81.3333 119.333 79.6 119.333 66.6667C119.333 53.4667 119.067 52 114.933 43.7333C109.333 32.2667 100.4 23.3333 89.3333 18.1333C78 12.8 60.6667 11.8667 49.6 15.7333ZM70.9333 51.6L71.3333 62L81.7333 62.4L92 62.8V66.6667V70.5333L81.7333 70.9333L71.3333 71.3333L70.9333 81.6L70.5333 92H66.6667H62.8L62.4 81.6L62 71.3333L51.7333 70.9333L41.3333 70.5333V66.6667V62.8L51.7333 62.4L62 62L62.4 51.6L62.8 41.3333H66.6667H70.5333L70.9333 51.6Z" fill="black"/>
<path d="M136.4 21.3333C133.6 22.5333 133.333 23.4667 133.333 33.2V43.7333L137.067 42.4C140.133 41.2 142 41.6 148.933 45.2C153.6 47.4667 158.4 49.3333 160 49.3333C161.467 49.3333 166.533 47.4667 171.333 45.0667L180 40.8L188.667 45.0667C193.467 47.4667 198.533 49.3333 200 49.3333C201.467 49.3333 206.533 47.4667 211.333 45.0667L220 40.8L228.667 45.0667C233.467 47.4667 238.533 49.3333 240 49.3333C241.467 49.3333 246.533 47.4667 251.333 45.0667L260 40.8L269.2 45.2C278.133 49.6 279.6 49.7333 287.733 47.3333L290.667 46.4V145.6C290.667 256 290.933 252.4 281.6 264.667C278.133 269.2 274 272.667 268.133 275.6C260.933 279.333 258.4 280 250.133 280C242 280 239.067 279.333 232.267 275.867C223.467 271.467 216.267 264.133 212.4 255.2C210.667 251.2 210 245.067 209.6 227.733C209.067 207.6 208.8 205.333 206.4 203.067C204 200.8 200 200.667 156.533 200.267L109.333 199.867V166.667V133.333H100H90.6666V166.667V200H58.9333C28.6666 200 26.9333 200.133 21.3333 202.933C11.6 207.867 10.2666 211.733 11.2 234C11.6 244.267 12.8 255.867 13.8666 259.867C20.1333 282.667 32.4 294.133 54.5333 298.133C67.2 300.4 248.533 300.8 260.133 298.667C276.8 295.467 294.267 283.2 301.733 269.6C309.467 255.467 309.333 257.2 309.333 137.6C309.333 62.8 308.933 26.9333 307.867 25.2C304.933 19.7333 300.4 19.4667 289.733 24.5333L280 29.2L270 24.4L260 19.7333L250 24.4L240 29.2L230 24.4L220 19.7333L210 24.4L200 29.2L190 24.4L180 19.7333L169.867 24.5333L159.867 29.3333L152.267 25.4667C142.4 20.5333 140 20 136.4 21.3333ZM190.667 234.533C190.667 251.6 193.467 262.667 200.533 273.2L205.2 280H131.467C49.4666 280 49.8666 280 40.8 271.067C38.2666 268.4 35.2 263.6 34 260.133C31.7333 253.067 29.4666 237.067 29.3333 226.933V220H110H190.667V234.533Z" fill="black"/>
<path d="M136.4 81.3333C133.733 82.4 133.333 83.6 133.333 90C133.333 96.6667 133.6 97.4667 136.8 98.6667C138.8 99.4667 164.8 100 201.2 100C261.067 100 262.4 100 265.867 97.2C270.267 93.7333 270.667 86.9333 266.533 83.2C263.867 80.8 260.667 80.6667 201.467 80.4C166.133 80.2667 138 80.6667 136.4 81.3333Z" fill="black"/>
<path d="M173.333 133.333C171.867 134.8 170.667 137.733 170.667 140C170.667 142.267 171.867 145.2 173.333 146.667C175.867 149.2 177.733 149.333 220 149.333C262.267 149.333 264.133 149.2 266.667 146.667C268.133 145.2 269.333 142.267 269.333 140C269.333 137.733 268.133 134.8 266.667 133.333C264.133 130.8 262.267 130.667 220 130.667C177.733 130.667 175.867 130.8 173.333 133.333Z" fill="black"/>
</g>
<defs>
<clipPath id="clip0_16_54">
<rect width="320" height="320" fill="white"/>
</clipPath>
</defs>
</svg>
