<svg width="320" height="320" viewBox="0 0 320 320" fill="none" xmlns="http://www.w3.org/2000/svg">
<path d="M240.002 110.031L290.002 160.031M290.002 160.031L240.002 210.031M290.002 160.031H119.377M200.002 110.031V85.0313C200.002 78.4009 197.368 72.0421 192.679 67.3537C187.991 62.6652 181.632 60.0313 175.002 60.0313H55.0017C48.3713 60.0313 42.0124 62.6652 37.324 67.3537C32.6356 72.0421 30.0017 78.4009 30.0017 85.0313V235.031C30.0017 241.662 32.6356 248.021 37.324 252.709C42.0124 257.397 48.3713 260.031 55.0017 260.031H175.002C181.632 260.031 187.991 257.397 192.679 252.709C197.368 248.021 200.002 241.662 200.002 235.031V210.031V110.031Z" stroke="black" stroke-width="18" stroke-linecap="round" stroke-linejoin="round"/>
</svg>
